<?xml version="1.0" encoding="UTF-8"?>
<!DOCTYPE svg PUBLIC "-//W3C//DTD SVG 1.1//EN" "http://www.w3.org/Graphics/SVG/1.1/DTD/svg11.dtd">
<svg xmlns="http://www.w3.org/2000/svg" version="1.1" width="512px" height="512px" style="shape-rendering:geometricPrecision; text-rendering:geometricPrecision; image-rendering:optimizeQuality; fill-rule:evenodd; clip-rule:evenodd" xmlns:xlink="http://www.w3.org/1999/xlink">
<g><path style="opacity:0.945" fill="#000000" d="M 40.5,28.5 C 77.1682,28.3333 113.835,28.5 150.5,29C 160.362,31.5581 163.862,37.7248 161,47.5C 159.084,51.0849 156.251,53.5849 152.5,55C 120.168,55.5 87.8351,55.6666 55.5,55.5C 55.6666,87.8351 55.5,120.168 55,152.5C 50.6085,161.64 43.7752,164.14 34.5,160C 31.2456,157.658 29.4123,154.491 29,150.5C 28.3333,113.833 28.3333,77.1667 29,40.5C 30.348,33.9875 34.1813,29.9875 40.5,28.5 Z"/></g>
<g><path style="opacity:0.945" fill="#000000" d="M 360.5,28.5 C 397.168,28.3333 433.835,28.5 470.5,29C 477,30.1667 480.833,34 482,40.5C 482.667,77.1667 482.667,113.833 482,150.5C 479.442,160.362 473.275,163.862 463.5,161C 459.915,159.084 457.415,156.251 456,152.5C 455.5,120.168 455.333,87.8351 455.5,55.5C 423.165,55.6666 390.832,55.5 358.5,55C 349.36,50.6085 346.86,43.7752 351,34.5C 353.551,31.3191 356.718,29.3191 360.5,28.5 Z"/></g>
<g><path style="opacity:0.972" fill="#000000" d="M 92.5,135.5 C 101.5,135.5 110.5,135.5 119.5,135.5C 119.5,171.167 119.5,206.833 119.5,242.5C 131.833,242.5 144.167,242.5 156.5,242.5C 156.5,206.833 156.5,171.167 156.5,135.5C 172.5,135.5 188.5,135.5 204.5,135.5C 204.5,171.167 204.5,206.833 204.5,242.5C 217.167,242.5 229.833,242.5 242.5,242.5C 242.5,206.833 242.5,171.167 242.5,135.5C 251.167,135.5 259.833,135.5 268.5,135.5C 268.5,171.167 268.5,206.833 268.5,242.5C 281.167,242.5 293.833,242.5 306.5,242.5C 306.5,206.833 306.5,171.167 306.5,135.5C 322.5,135.5 338.5,135.5 354.5,135.5C 354.5,171.167 354.5,206.833 354.5,242.5C 366.833,242.5 379.167,242.5 391.5,242.5C 391.5,206.833 391.5,171.167 391.5,135.5C 400.5,135.5 409.5,135.5 418.5,135.5C 418.5,171.167 418.5,206.833 418.5,242.5C 436.836,242.333 455.17,242.5 473.5,243C 482.607,248.262 484.441,255.429 479,264.5C 477.421,266.041 475.587,267.208 473.5,268C 328.167,268.667 182.833,268.667 37.5,268C 28.3925,262.738 26.5592,255.571 32,246.5C 33.5793,244.959 35.4127,243.792 37.5,243C 55.8303,242.5 74.1636,242.333 92.5,242.5C 92.5,206.833 92.5,171.167 92.5,135.5 Z"/></g>
<g><path style="opacity:0.938" fill="#000000" d="M 92.5,306.5 C 101.5,306.5 110.5,306.5 119.5,306.5C 119.5,329.5 119.5,352.5 119.5,375.5C 110.5,375.5 101.5,375.5 92.5,375.5C 92.5,352.5 92.5,329.5 92.5,306.5 Z"/></g>
<g><path style="opacity:0.967" fill="#000000" d="M 156.5,306.5 C 172.5,306.5 188.5,306.5 204.5,306.5C 204.5,329.5 204.5,352.5 204.5,375.5C 188.5,375.5 172.5,375.5 156.5,375.5C 156.5,352.5 156.5,329.5 156.5,306.5 Z"/></g>
<g><path style="opacity:0.974" fill="#000000" d="M 242.5,306.5 C 251.167,306.5 259.833,306.5 268.5,306.5C 268.5,329.5 268.5,352.5 268.5,375.5C 259.833,375.5 251.167,375.5 242.5,375.5C 242.5,352.5 242.5,329.5 242.5,306.5 Z"/></g>
<g><path style="opacity:0.967" fill="#000000" d="M 306.5,306.5 C 322.5,306.5 338.5,306.5 354.5,306.5C 354.5,329.5 354.5,352.5 354.5,375.5C 338.5,375.5 322.5,375.5 306.5,375.5C 306.5,352.5 306.5,329.5 306.5,306.5 Z"/></g>
<g><path style="opacity:0.938" fill="#000000" d="M 391.5,306.5 C 400.5,306.5 409.5,306.5 418.5,306.5C 418.5,329.5 418.5,352.5 418.5,375.5C 409.5,375.5 400.5,375.5 391.5,375.5C 391.5,352.5 391.5,329.5 391.5,306.5 Z"/></g>
<g><path style="opacity:0.945" fill="#000000" d="M 40.5,348.5 C 47.676,348.519 52.5094,351.852 55,358.5C 55.5,390.832 55.6666,423.165 55.5,455.5C 87.8351,455.333 120.168,455.5 152.5,456C 161.64,460.391 164.14,467.225 160,476.5C 157.658,479.754 154.491,481.588 150.5,482C 113.833,482.667 77.1667,482.667 40.5,482C 34,480.833 30.1667,477 29,470.5C 28.3333,433.833 28.3333,397.167 29,360.5C 30.348,353.987 34.1813,349.987 40.5,348.5 Z"/></g>
<g><path style="opacity:0.945" fill="#000000" d="M 467.5,348.5 C 475.527,348.697 480.36,352.697 482,360.5C 482.667,397.167 482.667,433.833 482,470.5C 480.833,477 477,480.833 470.5,482C 433.833,482.667 397.167,482.667 360.5,482C 349.644,478.756 346.478,471.922 351,461.5C 352.961,458.865 355.461,457.031 358.5,456C 390.832,455.5 423.165,455.333 455.5,455.5C 455.333,423.165 455.5,390.832 456,358.5C 458.185,353.14 462.019,349.807 467.5,348.5 Z"/></g>
</svg>
