<?xml version="1.0" encoding="UTF-8"?>
<!DOCTYPE svg PUBLIC "-//W3C//DTD SVG 1.1//EN" "http://www.w3.org/Graphics/SVG/1.1/DTD/svg11.dtd">
<svg xmlns="http://www.w3.org/2000/svg" version="1.1" width="512px" height="512px" style="shape-rendering:geometricPrecision; text-rendering:geometricPrecision; image-rendering:optimizeQuality; fill-rule:evenodd; clip-rule:evenodd" xmlns:xlink="http://www.w3.org/1999/xlink">
<g><path style="opacity:0.958" fill="#000000" d="M 511.5,194.5 C 511.5,199.833 511.5,205.167 511.5,210.5C 495.274,264.691 479.107,319.024 463,373.5C 454.123,391.703 439.623,402.203 419.5,405C 346.803,405.981 274.136,405.648 201.5,404C 183.189,399.691 170.355,388.858 163,371.5C 140.131,292.559 117.464,213.559 95,134.5C 91.7974,119.297 82.6308,110.131 67.5,107C 47.1667,106.667 26.8333,106.333 6.5,106C 3.37935,105.033 1.04602,103.2 -0.5,100.5C -0.5,97.1667 -0.5,93.8333 -0.5,90.5C 1.04602,87.8001 3.37935,85.9668 6.5,85C 28.1667,84.3333 49.8333,84.3333 71.5,85C 90.9158,88.7537 104.749,99.587 113,117.5C 118.095,134.718 123.261,151.885 128.5,169C 247.167,169.333 365.833,169.667 484.5,170C 498.475,172.813 507.475,180.98 511.5,194.5 Z M 134.5,192.5 C 249.333,191.334 364.333,191.167 479.5,192C 485.721,192.722 489.055,196.222 489.5,202.5C 474.312,255.918 458.812,309.251 443,362.5C 437.291,375.201 427.457,382.035 413.5,383C 346.5,383.667 279.5,383.667 212.5,383C 199.174,382.087 189.674,375.587 184,363.5C 167.631,306.337 151.131,249.337 134.5,192.5 Z"/></g>
<g><path style="opacity:0.946" fill="#000000" d="M 243.5,511.5 C 237.167,511.5 230.833,511.5 224.5,511.5C 199.756,503.036 188.923,485.703 192,459.5C 198.039,438.464 212.039,427.131 234,425.5C 258.047,427.216 272.381,439.883 277,463.5C 278.068,488.235 266.901,504.235 243.5,511.5 Z M 233.5,447.5 C 249.24,449.739 256.073,458.739 254,474.5C 247.591,489.194 237.091,493.028 222.5,486C 212.425,477.073 210.925,466.907 218,455.5C 222.361,451.071 227.528,448.404 233.5,447.5 Z"/></g>
<g><path style="opacity:0.949" fill="#000000" d="M 392.5,511.5 C 386.5,511.5 380.5,511.5 374.5,511.5C 350.089,503.891 338.923,487.224 341,461.5C 348.601,434.246 366.434,422.746 394.5,427C 417.975,435.158 428.475,451.658 426,476.5C 421.753,494.912 410.586,506.578 392.5,511.5 Z M 377.5,448.5 C 392.992,446.829 401.992,453.662 404.5,469C 402.204,483.964 393.537,490.63 378.5,489C 367.434,485.031 362.268,477.197 363,465.5C 365.188,457.486 370.021,451.819 377.5,448.5 Z"/></g>
</svg>
