<?xml version="1.0" encoding="UTF-8"?>
<!DOCTYPE svg PUBLIC "-//W3C//DTD SVG 1.1//EN" "http://www.w3.org/Graphics/SVG/1.1/DTD/svg11.dtd">
<svg xmlns="http://www.w3.org/2000/svg" version="1.1" width="512px" height="512px" style="shape-rendering:geometricPrecision; text-rendering:geometricPrecision; image-rendering:optimizeQuality; fill-rule:evenodd; clip-rule:evenodd" xmlns:xlink="http://www.w3.org/1999/xlink">
<g><path style="opacity:0.991" fill="#000000" d="M 511.5,202.5 C 511.5,208.5 511.5,214.5 511.5,220.5C 496.022,269.048 480.522,317.715 465,366.5C 454.995,388.83 437.828,401.663 413.5,405C 342.807,405.977 272.14,405.644 201.5,404C 180.652,399.151 165.819,386.984 157,367.5C 134.464,292.226 112.131,216.893 90,141.5C 86.7669,132.968 80.6002,128.468 71.5,128C 52.5,127.667 33.5,127.333 14.5,127C 6.98409,124.649 1.98409,119.816 -0.5,112.5C -0.5,108.167 -0.5,103.833 -0.5,99.5C 2.05987,91.7802 7.39321,86.9469 15.5,85C 37.1667,84.3333 58.8333,84.3333 80.5,85C 108.976,90.4737 126.809,107.307 134,135.5C 137.478,146.765 140.645,158.098 143.5,169.5C 254.167,169.333 364.834,169.5 475.5,170C 494.054,173.727 506.054,184.56 511.5,202.5 Z"/></g>
<g><path style="opacity:0.972" fill="#000000" d="M 243.5,511.5 C 237.167,511.5 230.833,511.5 224.5,511.5C 199.756,503.036 188.923,485.703 192,459.5C 198.039,438.464 212.039,427.131 234,425.5C 258.047,427.216 272.381,439.883 277,463.5C 278.068,488.235 266.901,504.235 243.5,511.5 Z"/></g>
<g><path style="opacity:0.974" fill="#000000" d="M 392.5,511.5 C 386.5,511.5 380.5,511.5 374.5,511.5C 350.089,503.891 338.923,487.224 341,461.5C 348.601,434.246 366.434,422.746 394.5,427C 417.975,435.158 428.475,451.658 426,476.5C 421.753,494.912 410.586,506.578 392.5,511.5 Z"/></g>
</svg>
