<?xml version="1.0" encoding="UTF-8"?>
<!DOCTYPE svg PUBLIC "-//W3C//DTD SVG 1.1//EN" "http://www.w3.org/Graphics/SVG/1.1/DTD/svg11.dtd">
<svg xmlns="http://www.w3.org/2000/svg" version="1.1" width="512px" height="512px" style="shape-rendering:geometricPrecision; text-rendering:geometricPrecision; image-rendering:optimizeQuality; fill-rule:evenodd; clip-rule:evenodd" xmlns:xlink="http://www.w3.org/1999/xlink">
<g><path style="opacity:0.997" fill="#000000" d="M 37.5,-0.5 C 92.1667,-0.5 146.833,-0.5 201.5,-0.5C 221.151,4.98517 233.651,17.6518 239,37.5C 239.667,92.1667 239.667,146.833 239,201.5C 233.833,221.333 221.333,233.833 201.5,239C 146.833,239.667 92.1667,239.667 37.5,239C 17.6518,233.651 4.98517,221.151 -0.5,201.5C -0.5,146.833 -0.5,92.1667 -0.5,37.5C 5.16667,17.8333 17.8333,5.16667 37.5,-0.5 Z"/></g>
<g><path style="opacity:0.997" fill="#000000" d="M 309.5,-0.5 C 364.167,-0.5 418.833,-0.5 473.5,-0.5C 493.167,5.16667 505.833,17.8333 511.5,37.5C 511.5,92.1667 511.5,146.833 511.5,201.5C 506.015,221.151 493.348,233.651 473.5,239C 418.833,239.667 364.167,239.667 309.5,239C 289.667,233.833 277.167,221.333 272,201.5C 271.333,146.833 271.333,92.1667 272,37.5C 277.349,17.6518 289.849,4.98517 309.5,-0.5 Z"/></g>
<g><path style="opacity:0.997" fill="#000000" d="M 201.5,511.5 C 146.833,511.5 92.1667,511.5 37.5,511.5C 17.8333,505.833 5.16667,493.167 -0.5,473.5C -0.5,418.833 -0.5,364.167 -0.5,309.5C 4.98517,289.849 17.6518,277.349 37.5,272C 92.1667,271.333 146.833,271.333 201.5,272C 221.333,277.167 233.833,289.667 239,309.5C 239.667,364.167 239.667,418.833 239,473.5C 233.651,493.348 221.151,506.015 201.5,511.5 Z"/></g>
<g><path style="opacity:0.997" fill="#000000" d="M 511.5,309.5 C 511.5,364.167 511.5,418.833 511.5,473.5C 505.833,493.167 493.167,505.833 473.5,511.5C 418.833,511.5 364.167,511.5 309.5,511.5C 289.849,506.015 277.349,493.348 272,473.5C 271.333,418.833 271.333,364.167 272,309.5C 277.167,289.667 289.667,277.167 309.5,272C 364.167,271.333 418.833,271.333 473.5,272C 493.348,277.349 506.015,289.849 511.5,309.5 Z"/></g>
</svg>
