<?xml version="1.0" encoding="UTF-8"?>
<!DOCTYPE svg PUBLIC "-//W3C//DTD SVG 1.1//EN" "http://www.w3.org/Graphics/SVG/1.1/DTD/svg11.dtd">
<svg xmlns="http://www.w3.org/2000/svg" version="1.1" width="512px" height="512px" style="shape-rendering:geometricPrecision; text-rendering:geometricPrecision; image-rendering:optimizeQuality; fill-rule:evenodd; clip-rule:evenodd" xmlns:xlink="http://www.w3.org/1999/xlink">
<g><path style="opacity:0.943" fill="#000000" d="M 239.5,-0.5 C 250.167,-0.5 260.833,-0.5 271.5,-0.5C 334.821,11.3209 372.321,48.9876 384,112.5C 388.594,166.803 368.427,208.97 323.5,239C 287.526,259.471 249.859,263.138 210.5,250C 162.752,230.703 134.918,195.536 127,144.5C 122.485,87.6929 144.319,44.5262 192.5,15C 207.46,7.29079 223.126,2.12412 239.5,-0.5 Z M 241.5,20.5 C 287.915,17.2919 323.748,34.9586 349,73.5C 368.613,111 368.28,148.333 348,185.5C 316.023,230.716 273.19,245.883 219.5,231C 168.168,209.282 144.335,170.448 148,114.5C 158.013,61.9874 189.18,30.654 241.5,20.5 Z"/></g>
<g><path style="opacity:0.959" fill="#000000" d="M 429.5,511.5 C 313.5,511.5 197.5,511.5 81.5,511.5C 57.4768,505.98 41.9768,491.313 35,467.5C 24.9528,387.968 48.1195,320.134 104.5,264C 122.812,248.259 143.479,244.259 166.5,252C 175.802,256.985 185.135,261.985 194.5,267C 245.15,287.417 293.483,283.083 339.5,254C 363.944,243.87 386.277,247.203 406.5,264C 465.833,323.008 488,393.841 473,476.5C 464.231,495.447 449.731,507.114 429.5,511.5 Z M 144.5,268.5 C 149.591,269.099 154.591,270.266 159.5,272C 211.6,304.34 266.267,309.34 323.5,287C 334.596,280.785 345.929,275.119 357.5,270C 368.907,267.769 379.24,270.103 388.5,277C 440.37,326.245 462.87,386.745 456,458.5C 451.999,478.501 439.832,489.334 419.5,491C 310.167,491.667 200.833,491.667 91.5,491C 72.1273,489.404 59.9606,479.237 55,460.5C 48.4559,399.496 64.1226,345.163 102,297.5C 109.959,287.204 119.459,278.704 130.5,272C 135.224,270.506 139.891,269.339 144.5,268.5 Z"/></g>
</svg>
