<?xml version="1.0" encoding="UTF-8"?>
<!DOCTYPE svg PUBLIC "-//W3C//DTD SVG 1.1//EN" "http://www.w3.org/Graphics/SVG/1.1/DTD/svg11.dtd">
<svg xmlns="http://www.w3.org/2000/svg" version="1.1" width="512px" height="512px" style="shape-rendering:geometricPrecision; text-rendering:geometricPrecision; image-rendering:optimizeQuality; fill-rule:evenodd; clip-rule:evenodd" xmlns:xlink="http://www.w3.org/1999/xlink">
<g><path style="opacity:0.994" fill="#000000" d="M 511.5,157.5 C 511.5,169.167 511.5,180.833 511.5,192.5C 507.592,216.386 499.759,239.052 488,260.5C 473.104,285.617 455.771,308.95 436,330.5C 382.51,385.863 322.343,432.196 255.5,469.5C 188.657,432.196 128.49,385.863 75,330.5C 55.2293,308.95 37.896,285.617 23,260.5C 11.2411,239.052 3.40779,216.386 -0.5,192.5C -0.5,180.833 -0.5,169.167 -0.5,157.5C 4.72709,115.194 25.0604,82.3608 60.5,59C 102.652,37.4893 145.652,35.8226 189.5,54C 214.114,65.4593 236.114,80.626 255.5,99.5C 279.859,75.1444 308.525,57.6444 341.5,47C 388.833,33.7708 431.5,42.4375 469.5,73C 493.509,96.184 507.509,124.351 511.5,157.5 Z"/></g>
</svg>
