<?xml version="1.0" encoding="UTF-8"?>
<!DOCTYPE svg PUBLIC "-//W3C//DTD SVG 1.1//EN" "http://www.w3.org/Graphics/SVG/1.1/DTD/svg11.dtd">
<svg xmlns="http://www.w3.org/2000/svg" version="1.1" width="512px" height="512px" style="shape-rendering:geometricPrecision; text-rendering:geometricPrecision; image-rendering:optimizeQuality; fill-rule:evenodd; clip-rule:evenodd" xmlns:xlink="http://www.w3.org/1999/xlink">
<g><path style="opacity:0.963" fill="#000000" d="M 511.5,162.5 C 511.5,174.5 511.5,186.5 511.5,198.5C 505.456,233.594 491.956,265.594 471,294.5C 448.06,326.114 421.56,354.614 391.5,380C 351.273,414.222 308.273,444.555 262.5,471C 257.833,473 253.167,473 248.5,471C 185.142,434.706 127.642,390.539 76,338.5C 54.5765,315.747 36.2432,290.747 21,263.5C 10.0916,242.943 2.92497,221.276 -0.5,198.5C -0.5,186.5 -0.5,174.5 -0.5,162.5C 5.16103,116.992 27.161,81.825 65.5,57C 107.696,35.0045 151.029,32.6712 195.5,50C 217.654,59.2336 237.654,71.7336 255.5,87.5C 289.33,56.8267 329.164,40.4934 375,38.5C 441.294,41.1495 484.96,73.8161 506,136.5C 508.179,145.237 510.012,153.903 511.5,162.5 Z M 124.5,71.5 C 160.183,70.3398 192.183,80.5064 220.5,102C 229.464,109.295 238.13,116.962 246.5,125C 252.5,128.333 258.5,128.333 264.5,125C 287.258,100.925 314.591,84.2582 346.5,75C 395.488,64.1048 434.322,78.9381 463,119.5C 478.145,146.845 482.478,175.845 476,206.5C 469.2,232.431 457.866,256.098 442,277.5C 418.984,308.519 392.484,336.352 362.5,361C 328.913,389.083 293.246,414.249 255.5,436.5C 195.155,401.541 140.989,358.541 93,307.5C 71.2673,283.412 53.9339,256.412 41,226.5C 24.642,182.333 30.642,141.667 59,104.5C 77.04,85.8968 98.8734,74.8968 124.5,71.5 Z"/></g>
</svg>
